<?xml version="1.0" encoding="UTF-8" standalone="no"?>
<!-- Created with Inkscape (http://www.inkscape.org/) -->

<svg
   version="1.1"
   id="svg2"
   width="181.25214"
   height="191.91533"
   viewBox="0 0 181.25214 191.91533"
   sodipodi:docname="logo-CRISALID-mini.svg"
   inkscape:version="1.3.1 (9b9bdc1480, 2023-11-25, custom)"
   xmlns:inkscape="http://www.inkscape.org/namespaces/inkscape"
   xmlns:sodipodi="http://sodipodi.sourceforge.net/DTD/sodipodi-0.dtd"
   xmlns:xlink="http://www.w3.org/1999/xlink"
   xmlns="http://www.w3.org/2000/svg"
   xmlns:svg="http://www.w3.org/2000/svg">
  <defs
     id="defs6">
    <linearGradient
       inkscape:collect="always"
       id="linearGradient5021">
      <stop
         style="stop-color:#c23f4f;stop-opacity:1;"
         offset="0"
         id="stop5017" />
      <stop
         style="stop-color:#cc606f;stop-opacity:1"
         offset="1"
         id="stop5019" />
    </linearGradient>
    <inkscape:path-effect
       effect="skeletal"
       id="path-effect1025"
       is_visible="true"
       lpeversion="1"
       pattern="M 0,18.867925 C 0,8.4528302 8.4528302,0 18.867925,0 c 10.415094,0 18.867924,8.4528302 18.867924,18.867925 0,10.415094 -8.45283,18.867924 -18.867924,18.867924 C 8.4528302,37.735849 0,29.283019 0,18.867925 Z"
       copytype="single_stretched"
       prop_scale="0.16324359"
       scale_y_rel="false"
       spacing="0"
       normal_offset="0"
       tang_offset="0"
       prop_units="false"
       vertical_pattern="false"
       hide_knot="false"
       fuse_tolerance="0" />
    <linearGradient
       inkscape:collect="always"
       xlink:href="#linearGradient5021"
       id="linearGradient5023"
       x1="-11.496865"
       y1="256.1246"
       x2="837.99371"
       y2="256.1246"
       gradientUnits="userSpaceOnUse"
       gradientTransform="matrix(0.21336568,0,0,0.34067019,312.51337,177.51513)" />
  </defs>
  <sodipodi:namedview
     id="namedview4"
     pagecolor="#ffffff"
     bordercolor="#666666"
     borderopacity="1.0"
     inkscape:showpageshadow="2"
     inkscape:pageopacity="0.0"
     inkscape:pagecheckerboard="0"
     inkscape:deskcolor="#d1d1d1"
     showgrid="false"
     inkscape:zoom="0.62023597"
     inkscape:cx="-398.23553"
     inkscape:cy="-49.980977"
     inkscape:window-width="1920"
     inkscape:window-height="1016"
     inkscape:window-x="0"
     inkscape:window-y="27"
     inkscape:window-maximized="1"
     inkscape:current-layer="g8"
     showguides="true">
    <sodipodi:guide
       position="-189.21387,529.92283"
       orientation="0,-1"
       id="guide1"
       inkscape:locked="false" />
  </sodipodi:namedview>
  <g
     inkscape:groupmode="layer"
     inkscape:label="Image"
     id="g8"
     transform="translate(-310.06033,-168.81148)">
    <rect
       style="opacity:1;fill:url(#linearGradient5023);fill-opacity:1;stroke:none;stroke-width:0.808818;stroke-linecap:round"
       id="rect1032"
       width="181.25214"
       height="191.91533"
       x="310.06033"
       y="168.81148"
       rx="8.2003641"
       ry="14.447566" />
    <g
       id="g6265"
       transform="translate(-568.33207,62.23409)">
      <path
         id="ellipse6129"
         style="opacity:1;fill:none;stroke:#ffffff;stroke-width:2.815"
         transform="matrix(0.48328852,-0.87546114,0.87544585,0.48331621,0,0)"
         d="m 252.37259,916.31764 c 6.17251,-30.23536 20.93324,-51.52203 38.1607,-51.52204 17.65384,-1e-5 32.71733,22.35338 38.60314,53.78324 m 2.06669,15.40687 c 0.37996,4.53427 0.57778,9.19329 0.57778,13.94544 -0.0824,5.78757 -0.31536,11.37117 -0.80269,16.40304 m -2.33798,15.47258 c -6.20416,30.09623 -20.92929,51.25993 -38.10694,51.25993 -17.77999,0 -32.93247,-22.674 -38.7279,-54.45841 m -1.91421,-14.40497 c -0.39804,-4.63709 -0.60549,-9.4058 -0.60549,-14.27217 0,-5.51968 0.26689,-10.91372 0.77607,-16.13255"
         sodipodi:nodetypes="cscccccsccsc" />
      <path
         id="ellipse6131"
         style="opacity:1;fill:none;stroke:#ffffff;stroke-width:2.815"
         transform="matrix(0.49795978,0.86720012,-0.86721587,0.49793235,0,0)"
         d="m 619.39166,-723.86648 c -0.50528,-5.19968 -0.77007,-10.573 -0.77007,-16.07096 0.06,-5.35328 0.28749,-10.57812 0.68982,-15.22159 m 2.20698,-15.44412 c 6.05535,-30.73737 20.94388,-52.46984 38.35081,-52.46984 17.39787,0 32.27996,21.70985 38.34134,52.42184 m 2.20734,15.39324 c 0.45897,4.96569 0.69893,10.0866 0.69893,15.32047 0,5.03955 -0.22248,9.97437 -0.64871,14.76674 m -2.23297,15.8221 c -6.04566,30.778 -20.94449,52.54671 -38.36593,52.54671 -17.3305,0 -32.16467,-21.54206 -38.27054,-52.06551"
         sodipodi:nodetypes="ccccsccsccsc" />
      <circle
         style="opacity:1;fill:none;fill-opacity:1;stroke:#ffffff;stroke-width:2.815;stroke-dasharray:none;stroke-opacity:1"
         id="circle6133"
         cx="970.59064"
         cy="158.83348"
         r="6.7745929" />
      <g
         id="g6139"
         style="opacity:1"
         transform="translate(568.4561,24.271159)">
        <path
           style="fill:none;stroke:#ffffff;stroke-width:3;stroke-linecap:round;stroke-linejoin:miter;stroke-dasharray:none;stroke-opacity:1"
           d="m 373.83686,195.41692 3.88243,-2.11934"
           id="path6135" />
        <path
           style="fill:none;stroke:#ffffff;stroke-width:3;stroke-linecap:round;stroke-linejoin:miter;stroke-dasharray:none;stroke-opacity:1"
           d="m 385.80531,188.64233 3.88243,-2.11934"
           id="path6137" />
      </g>
      <g
         id="g6145"
         transform="rotate(-60,706.5437,-301.12111)"
         style="opacity:1">
        <path
           style="fill:none;stroke:#ffffff;stroke-width:3;stroke-linecap:round;stroke-linejoin:miter;stroke-dasharray:none;stroke-opacity:1"
           d="m 373.83686,195.41692 3.88243,-2.11934"
           id="path6141" />
        <path
           style="fill:none;stroke:#ffffff;stroke-width:3;stroke-linecap:round;stroke-linejoin:miter;stroke-dasharray:none;stroke-opacity:1"
           d="m 385.80531,188.64233 3.88243,-2.11934"
           id="path6143" />
      </g>
      <g
         id="g6151"
         transform="rotate(-60,668.01727,-323.36436)"
         style="opacity:1">
        <path
           style="fill:none;stroke:#ffffff;stroke-width:3;stroke-linecap:round;stroke-linejoin:miter;stroke-dasharray:none;stroke-opacity:1"
           d="m 373.83686,195.41692 3.88243,-2.11934"
           id="path6147" />
        <path
           style="fill:none;stroke:#ffffff;stroke-width:3;stroke-linecap:round;stroke-linejoin:miter;stroke-dasharray:none;stroke-opacity:1"
           d="m 385.80531,188.64233 3.88243,-2.11934"
           id="path6149" />
      </g>
      <g
         id="g6157"
         transform="translate(608.31329,1.3504474)"
         style="opacity:1">
        <path
           style="fill:none;stroke:#ffffff;stroke-width:3;stroke-linecap:round;stroke-linejoin:miter;stroke-dasharray:none;stroke-opacity:1"
           d="m 373.83686,195.41692 3.88243,-2.11934"
           id="path6153" />
        <path
           style="fill:none;stroke:#ffffff;stroke-width:3;stroke-linecap:round;stroke-linejoin:miter;stroke-dasharray:none;stroke-opacity:1"
           d="m 385.80531,188.64233 3.88243,-2.11934"
           id="path6155" />
      </g>
      <g
         id="g6163"
         transform="rotate(60,664.86216,683.78838)"
         style="opacity:1">
        <path
           style="fill:none;stroke:#ffffff;stroke-width:3;stroke-linecap:round;stroke-linejoin:miter;stroke-dasharray:none;stroke-opacity:1"
           d="m 373.83686,195.41692 3.88243,-2.11934"
           id="path6159" />
        <path
           style="fill:none;stroke:#ffffff;stroke-width:3;stroke-linecap:round;stroke-linejoin:miter;stroke-dasharray:none;stroke-opacity:1"
           d="m 385.80531,188.64233 3.88243,-2.11934"
           id="path6161" />
      </g>
      <g
         id="g6169"
         transform="rotate(60,665.05375,729.96164)"
         style="opacity:1">
        <path
           style="fill:none;stroke:#ffffff;stroke-width:3;stroke-linecap:round;stroke-linejoin:miter;stroke-dasharray:none;stroke-opacity:1"
           d="m 373.83686,195.41692 3.88243,-2.11934"
           id="path6165" />
        <path
           style="fill:none;stroke:#ffffff;stroke-width:3;stroke-linecap:round;stroke-linejoin:miter;stroke-dasharray:none;stroke-opacity:1"
           d="m 385.80531,188.64233 3.88243,-2.11934"
           id="path6167" />
      </g>
      <path
         id="ellipse6171"
         style="opacity:1;fill:none;stroke:#ffffff;stroke-width:2.815"
         transform="matrix(0.99981585,-0.01919043,0.01915881,0.99981645,0,0)"
         d="m 925.5051,236.13269 c -0.36936,-4.47279 -0.56155,-9.06634 -0.56155,-13.75037 0,-5.19783 0.23667,-10.28424 0.68948,-15.21785 m 2.22188,-15.52166 c 6.06463,-30.69835 20.94325,-52.39604 38.33625,-52.39604 17.61905,0 32.65795,22.26533 38.56824,53.59746 m 2.0657,15.1708 c 0.4034,4.66699 0.6137,9.46764 0.6137,14.36729 0,5.33587 -0.2494,10.55433 -0.726,15.61061 m -2.2587,15.49758 c -6.1106,30.50326 -20.93964,52.02737 -38.26294,52.02737 -17.75886,0 -32.89646,-22.62014 -38.70721,-54.34512"
         sodipodi:nodetypes="csccsccsccsc" />
      <circle
         style="opacity:1;fill:none;fill-opacity:1;stroke:#ffffff;stroke-width:2.815;stroke-dasharray:none;stroke-opacity:1"
         id="circle6173"
         cx="930.67102"
         cy="181.66753"
         r="6.7745929" />
      <circle
         style="opacity:1;fill:none;fill-opacity:1;stroke:#ffffff;stroke-width:2.815;stroke-dasharray:none;stroke-opacity:1"
         id="circle6175"
         cx="930.35162"
         cy="226.37756"
         r="6.7745929" />
      <circle
         style="opacity:1;fill:none;fill-opacity:1;stroke:#ffffff;stroke-width:2.815;stroke-dasharray:none;stroke-opacity:1"
         id="circle6177"
         cx="970.11163"
         cy="248.73257"
         r="6.7745929" />
      <circle
         style="opacity:1;fill:none;fill-opacity:1;stroke:#ffffff;stroke-width:2.815;stroke-dasharray:none;stroke-opacity:1"
         id="circle6179"
         cx="1010.0313"
         cy="226.53723"
         r="6.7745929" />
      <circle
         style="opacity:1;fill:none;fill-opacity:1;stroke:#ffffff;stroke-width:2.815;stroke-dasharray:none;stroke-opacity:1"
         id="circle6181"
         cx="1010.191"
         cy="181.18849"
         r="6.7745929" />
      <circle
         style="opacity:1;fill:none;fill-opacity:1;stroke:#ffffff;stroke-width:2.815;stroke-dasharray:none;stroke-opacity:1"
         id="circle6183"
         cx="970.2713"
         cy="203.70319"
         r="6.7745929" />
    </g>
  </g>
</svg>
